PathFileType	4	(X/Y/Z)	C:/Users/beibeiliu/ov580/test_trc\sequence.18_training_dense_right.trc
DataRate	CameraRate	NumFrames	NumMarkers	Units	OrigDataRate	OrigDataStartFrame	OrigNumFrames
120	120	8	19	mm	120	85	336
Frame#	Time	ThumbCMC			ThumbMCP			ThumbIP			ThumbTip			IndexMCP			IndexPIP			IndexTip			MiddleMCP			MiddlePIP			MiddleTip			RingMCP			RingPIP			RingTip			PinkyMCP			PinkyPIP			PinkyTip			BackHand1			BackHand2			BackHand3	
		X0	Y0	Z0	X1	Y1	Z1	X2	Y2	Z2	X3	Y3	Z3	X4	Y4	Z4	X5	Y5	Z5	X6	Y6	Z6	X7	Y7	Z7	X8	Y8	Z8	X9	Y9	Z9	X10	Y10	Z10	X11	Y11	Z11	X12	Y12	Z12	X13	Y13	Z13	X14	Y14	Z14	X15	Y15	Z15	X16	Y16	Z16	X17	Y17	Z17	X18	Y18	Z18	
84	0.7	234.777	-15.6408	32.8183	207.386	0.669985	30.1883	183.259	7.97677	25.5503	163.337	2.74084	26.6059	193.169	-29.2182	-19.9132	164.848	-24.0799	-20.6859	151.063	-7.05902	-2.69427	182.123	-44.6219	-11.2762	151.406	-32.9605	-11.1939	146.811	-17.0785	16.4241	176.041	-55.6624	-1.50621	151.097	-46.6724	4.84446	153.11	-24.8894	22.0371	178.109	-69.523	20.1117	154.151	-57.8998	20.7775	153.864	-34.9505	29.5428	218.525	-64.098	18.9401	238.193	-68.6676	36.844	235.456	-47.6161	17.4275	
85	0.708333	232.875	-17.697	31.2086	209.103	2.63676	29.3427	185.729	6.51099	23.7795	163.796	10.0635	22.9737	193.935	-29.991	-18.0242	166.602	-22.0356	-25.0807	151.22	-3.58554	-6.69855	178.092	-42.1842	-16.3795	152.442	-33.3948	-15.1396	147.943	-11.1164	12.774	171.041	-57.3531	-0.28752	152.069	-40.9923	-0.403308	150.254	-23.217	23.1124	170.441	-65.8429	16.6697	151.698	-53.6381	16.9665	154.173	-28.9091	28.2868	216.324	-65.4124	22.1993	234.734	-69.7023	41.3021	235.927	-50.6407	20.9753	
86	0.716667	232.805	-18.0241	30.2804	211.542	4.16713	29.0925	187.551	12.7503	19.4485	167.091	16.0232	18.8551	192.364	-29.9942	-22.1077	169.793	-21.1734	-27.5077	151.764	-1.17574	-8.14925	178.275	-43.9151	-16.3909	151.183	-28.6548	-17.442	151.022	-7.18507	8.42753	168.146	-54.6733	-3.8806	150.714	-34.3625	-2.54341	155	-16.2285	18.1074	168.576	-63.1591	14.9429	150.292	-47.219	11.6948	150.655	-26.426	22.5033	209.83	-66.1085	21.1508	230.011	-73.6209	38.6909	232.268	-51.9816	16.8244	
87	0.725	233.58	-20.7245	32.4114	209.609	2.2296	24.3148	189.537	14.3905	16.6672	166.867	17.4059	12.4236	192.877	-31.3638	-22.6669	171.184	-19.9553	-30.7337	157.041	2.69257	-18.1733	177.257	-41.6767	-20.512	154.947	-24.9186	-22.8613	149.864	-7.39562	3.20656	169.15	-52.1596	-6.68641	148.926	-33.8044	-4.36072	153.433	-15.4637	14.1967	164.484	-63.1535	13.7443	149.008	-45.8275	9.81497	149.691	-23.7452	23.8645	208.123	-69.2266	21.8665	223.956	-71.873	38.7165	231.098	-53.0768	20.602	
88	0.733333	233.446	-21.9872	32.5988	212.896	4.29843	24.3368	193.746	12.547	15.4985	171.269	17.1347	9.64501	193.873	-31.8458	-23.1096	168.951	-18.0591	-32.9573	159.539	5.54534	-17.9971	175.099	-43.9773	-20.602	153.815	-26.6304	-25.0515	152.504	-3.05237	-0.313676	168.467	-48.2028	-9.85823	149.896	-28.7591	-7.6376	153.434	-12.7977	16.0556	165.071	-60.4202	10.5594	145.463	-42.8559	7.79982	150.462	-19.3818	20.5052	203.763	-64.894	18.1668	221.129	-71.2263	36.2258	229.292	-53.5447	17.6842	
89	0.741667	230.327	-23.4909	27.2334	214.379	1.43737	22.4885	196.845	15.3829	10.6311	178.702	20.8326	6.6904	195.794	-31.4769	-25.7738	176.749	-17.3138	-38.2394	160.513	4.36591	-20.4367	176.829	-43.0187	-21.02	155.379	-21.8124	-28.0977	157.445	-0.503485	-3.50589	167.537	-47.8955	-11.782	149.771	-30.1585	-10.747	156.001	-9.77311	7.39069	160.101	-59.4769	9.49756	146.714	-42.1193	2.39208	147.78	-19.1169	13.3125	200.962	-68.3178	21.5797	214.748	-73.9693	38.666	227.385	-54.9819	14.755	
90	0.75	232.894	-24.5674	28.9402	217.214	2.29184	17.8138	200.742	16.0503	5.0358	183.448	26.6751	-0.343963	199.407	-31.7543	-30.5854	177.884	-19.259	-39.5354	168.498	5.3645	-27.7182	179.001	-43.1949	-22.6857	159.352	-20.7374	-32.3909	157.761	0.478715	-9.98177	167.115	-49.3079	-10.9778	151.748	-23.7822	-14.2966	157.775	-7.28882	6.47119	160.656	-56.0411	7.28505	143.955	-38.0344	1.23737	150.132	-17.1968	8.57393	198.455	-65.8184	17.3081	215.996	-72.3709	41.4516	226.754	-56.7741	15.5345	
91	0.758333	230.486	-28.1478	28.5024	220.063	1.53536	15.2492	206.719	13.5637	7.74083	190.97	27.7457	-3.26872	199.142	-34.1666	-29.6632	181.656	-14.7045	-43.6476	173.202	7.27889	-29.8874	179.625	-41.3762	-26.3199	160.593	-16.7911	-34.455	162.866	3.10825	-11.7134	168.002	-46.3835	-15.7785	151.331	-21.746	-17.6568	159.991	-5.22982	-0.818787	157.237	-55.0916	6.17379	145.682	-32.9876	-3.17198	151.77	-13.5475	4.68493	195.298	-66.5536	16.7709	209.356	-73.6734	41.1497	224.969	-57.7545	19.593	
